# xmcd
#
# Track frame offsets: 
#        150
#        14195
#        30380
#        45097
#        62990
#        80770
#        93605
#        108757
#        128035
#        145807
#
# Disc length: 2131 seconds
#
# Revision: 2
# Processed by: cddbd v1.5.2PL0 Copyright (c) Steve Scherf et al.
# Submitted via: ExactAudioCopy v1.0b1
#
DISCID=8008510a
DTITLE=Various Artist - Greatest Country Hits Of The 80's 1987
DYEAR=1989
DGENRE=Country
TTITLE0=Sweethearts Of The Rodeo - Midnight Girl Sunset Town
TTITLE1=Gatlin Brothers - Talkin' To The Moon
TTITLE2=George Jones - The Right Left Hand
TTITLE3=John Conlee - Domestic Life
TTITLE4=Rosanne Cash - The Way We Make A Broken Heart
TTITLE5=O'Kanes - Can't Stop My Heart From Loving You
TTITLE6=Ricky Van Shelton - Somebody Lied
TTITLE7=T.G. Sheppard - One For The Money
TTITLE8=Exile - I Can't Get Close Enough
TTITLE9=Asleep At The Wheel - House Of Blue Lights
EXTD=
EXTT0=Sweethearts Of The Rodeo
EXTT1=The Gatlins
EXTT2=George Jones
EXTT3=John Conlee
EXTT4=Rosanne Cash
EXTT5=The O'Kanes
EXTT6=Ricky Van Shelton
EXTT7=T. G. Sheppard
EXTT8=Exile
EXTT9=Asleep At The Wheel
PLAYORDER=
